<svg xmlns="http://www.w3.org/2000/svg" version="1.1" xmlns:xlink="http://www.w3.org/1999/xlink" xmlns:svgjs="http://svgjs.com/svgjs" width="256" height="256" x="0" y="0" viewBox="0 0 24 24" style="enable-background:new 0 0 512 512" xml:space="preserve"><g><g id="_01_align_center" data-name="01 align center"><path d="M24,3H4.242L4.2,2.649A3,3,0,0,0,1.222,0H0V2H1.222a1,1,0,0,1,.993.883L3.8,16.351A3,3,0,0,0,6.778,19H20V17H6.778a1,1,0,0,1-.993-.884L5.654,15H21.836ZM20.164,13H5.419L4.478,5H21.607Z" fill="#ffffff" data-original="#000000"></path><circle cx="7" cy="22" r="2" fill="#ffffff" data-original="#000000"></circle><circle cx="17" cy="22" r="2" fill="#ffffff" data-original="#000000"></circle></g></g></svg>